<mxfile host="Electron" modified="2024-04-19T21:03:13.404Z" agent="Mozilla/5.0 (Macintosh; Intel Mac OS X 10_15_7) AppleWebKit/537.36 (KHTML, like Gecko) draw.io/24.2.5 Chrome/120.0.6099.109 Electron/28.1.0 Safari/537.36" etag="FUMzhwB9WbfVWgxiMS0r" version="24.2.5" type="device">
  <diagram name="Página-1" id="FBw89Dit-uJK2HdVbEpB">
    <mxGraphModel dx="2568" dy="1061" grid="1" gridSize="10" guides="1" tooltips="1" connect="1" arrows="1" fold="1" page="1" pageScale="1" pageWidth="827" pageHeight="1169" math="0" shadow="0">
      <root>
        <mxCell id="0" />
        <mxCell id="1" parent="0" />
        <mxCell id="XvUMxLVy6AJw7U1lLkEs-25" value="" style="rounded=0;whiteSpace=wrap;html=1;" vertex="1" parent="1">
          <mxGeometry x="-28" y="60" width="1030" height="810" as="geometry" />
        </mxCell>
        <mxCell id="XvUMxLVy6AJw7U1lLkEs-3" value="" style="rounded=0;whiteSpace=wrap;html=1;fillColor=#ffe6cc;strokeColor=#d79b00;" vertex="1" parent="1">
          <mxGeometry x="15" y="270" width="250" height="285" as="geometry" />
        </mxCell>
        <mxCell id="XvUMxLVy6AJw7U1lLkEs-4" value="" style="rounded=0;whiteSpace=wrap;html=1;fillColor=#f5f5f5;fontColor=#333333;strokeColor=#666666;" vertex="1" parent="1">
          <mxGeometry x="400" y="200" width="190" height="400" as="geometry" />
        </mxCell>
        <mxCell id="XvUMxLVy6AJw7U1lLkEs-6" value="" style="shape=flexArrow;endArrow=classic;html=1;rounded=0;fillColor=#b1ddf0;strokeColor=#10739e;" edge="1" parent="1">
          <mxGeometry width="50" height="50" relative="1" as="geometry">
            <mxPoint x="290" y="404.5" as="sourcePoint" />
            <mxPoint x="380" y="404.5" as="targetPoint" />
          </mxGeometry>
        </mxCell>
        <mxCell id="XvUMxLVy6AJw7U1lLkEs-7" value="" style="html=1;verticalLabelPosition=bottom;align=center;labelBackgroundColor=#ffffff;verticalAlign=top;strokeWidth=2;strokeColor=#0080F0;shadow=0;dashed=0;shape=mxgraph.ios7.icons.smartphone;" vertex="1" parent="1">
          <mxGeometry x="65" y="360" width="40" height="60" as="geometry" />
        </mxCell>
        <mxCell id="XvUMxLVy6AJw7U1lLkEs-9" value="" style="html=1;verticalLabelPosition=bottom;align=center;labelBackgroundColor=#ffffff;verticalAlign=top;strokeWidth=2;strokeColor=#0080F0;shadow=0;dashed=0;shape=mxgraph.ios7.icons.monitor;" vertex="1" parent="1">
          <mxGeometry x="165" y="365" width="70" height="50" as="geometry" />
        </mxCell>
        <mxCell id="XvUMxLVy6AJw7U1lLkEs-10" value="Requsitante" style="text;html=1;align=center;verticalAlign=middle;whiteSpace=wrap;rounded=0;fontStyle=0;fontColor=#1A1A1A;fontSize=14;" vertex="1" parent="1">
          <mxGeometry x="90" y="290" width="120" height="40" as="geometry" />
        </mxCell>
        <mxCell id="XvUMxLVy6AJw7U1lLkEs-11" value="Definição dos&amp;nbsp;&lt;div&gt;mocks&lt;/div&gt;" style="rounded=1;whiteSpace=wrap;html=1;fillColor=#dae8fc;strokeColor=#6c8ebf;fontStyle=0;fontSize=14;" vertex="1" parent="1">
          <mxGeometry x="422" y="720" width="146" height="80" as="geometry" />
        </mxCell>
        <mxCell id="XvUMxLVy6AJw7U1lLkEs-12" value="" style="shape=flexArrow;endArrow=classic;html=1;rounded=0;fillColor=#b1ddf0;strokeColor=#10739e;" edge="1" parent="1">
          <mxGeometry width="50" height="50" relative="1" as="geometry">
            <mxPoint x="494.5" y="610" as="sourcePoint" />
            <mxPoint x="494.5" y="690" as="targetPoint" />
          </mxGeometry>
        </mxCell>
        <mxCell id="XvUMxLVy6AJw7U1lLkEs-14" value="Fornecedor XPTO" style="rounded=1;whiteSpace=wrap;html=1;fillColor=#e1d5e7;strokeColor=#9673a6;fontStyle=0;fontSize=14;fontColor=#1A1A1A;" vertex="1" parent="1">
          <mxGeometry x="790" y="210" width="146" height="80" as="geometry" />
        </mxCell>
        <mxCell id="XvUMxLVy6AJw7U1lLkEs-15" value="Serviço&amp;nbsp;&lt;div&gt;Microserviço&lt;/div&gt;" style="rounded=1;whiteSpace=wrap;html=1;fillColor=#e1d5e7;strokeColor=#9673a6;fontStyle=0;fontSize=14;fontColor=#1A1A1A;" vertex="1" parent="1">
          <mxGeometry x="790" y="350" width="146" height="80" as="geometry" />
        </mxCell>
        <mxCell id="XvUMxLVy6AJw7U1lLkEs-16" value="Api Xpto" style="rounded=1;whiteSpace=wrap;html=1;fillColor=#e1d5e7;strokeColor=#9673a6;fontStyle=0;fontSize=14;fontColor=#1A1A1A;" vertex="1" parent="1">
          <mxGeometry x="790" y="500" width="146" height="80" as="geometry" />
        </mxCell>
        <mxCell id="XvUMxLVy6AJw7U1lLkEs-17" value="" style="shape=flexArrow;endArrow=classic;html=1;rounded=0;fillColor=#b1ddf0;strokeColor=#10739e;" edge="1" parent="1">
          <mxGeometry width="50" height="50" relative="1" as="geometry">
            <mxPoint x="660" y="249.5" as="sourcePoint" />
            <mxPoint x="750" y="249.5" as="targetPoint" />
          </mxGeometry>
        </mxCell>
        <mxCell id="XvUMxLVy6AJw7U1lLkEs-18" value="" style="aspect=fixed;sketch=0;html=1;dashed=0;whitespace=wrap;fillColor=#2875E2;strokeColor=#ffffff;points=[[0.005,0.63,0],[0.1,0.2,0],[0.9,0.2,0],[0.5,0,0],[0.995,0.63,0],[0.72,0.99,0],[0.5,1,0],[0.28,0.99,0]];shape=mxgraph.kubernetes.icon2;kubernetesLabel=1;prIcon=api" vertex="1" parent="1">
          <mxGeometry x="449.16" y="350" width="91.67" height="88" as="geometry" />
        </mxCell>
        <mxCell id="XvUMxLVy6AJw7U1lLkEs-19" value="" style="shape=flexArrow;endArrow=classic;html=1;rounded=0;fillColor=#b1ddf0;strokeColor=#10739e;" edge="1" parent="1">
          <mxGeometry width="50" height="50" relative="1" as="geometry">
            <mxPoint x="660" y="399.5" as="sourcePoint" />
            <mxPoint x="750" y="399.5" as="targetPoint" />
          </mxGeometry>
        </mxCell>
        <mxCell id="XvUMxLVy6AJw7U1lLkEs-20" value="" style="shape=flexArrow;endArrow=classic;html=1;rounded=0;fillColor=#b1ddf0;strokeColor=#10739e;" edge="1" parent="1">
          <mxGeometry width="50" height="50" relative="1" as="geometry">
            <mxPoint x="670" y="550" as="sourcePoint" />
            <mxPoint x="760" y="550" as="targetPoint" />
          </mxGeometry>
        </mxCell>
        <mxCell id="XvUMxLVy6AJw7U1lLkEs-21" value="" style="aspect=fixed;sketch=0;html=1;dashed=0;whitespace=wrap;fillColor=#2875E2;strokeColor=#ffffff;points=[[0.005,0.63,0],[0.1,0.2,0],[0.9,0.2,0],[0.5,0,0],[0.995,0.63,0],[0.72,0.99,0],[0.5,1,0],[0.28,0.99,0]];shape=mxgraph.kubernetes.icon2;kubernetesLabel=1;prIcon=api" vertex="1" parent="1">
          <mxGeometry x="100" y="445" width="70" height="67.2" as="geometry" />
        </mxCell>
        <mxCell id="XvUMxLVy6AJw7U1lLkEs-22" value="Proxy" style="text;html=1;align=center;verticalAlign=middle;whiteSpace=wrap;rounded=0;fontSize=14;fontColor=#1A1A1A;" vertex="1" parent="1">
          <mxGeometry x="465" y="270" width="60" height="30" as="geometry" />
        </mxCell>
        <mxCell id="XvUMxLVy6AJw7U1lLkEs-27" value="Proxy para Mock" style="text;html=1;align=center;verticalAlign=middle;whiteSpace=wrap;rounded=0;fontSize=26;fillColor=#1ba1e2;strokeColor=#006EAF;fontColor=#ffffff;" vertex="1" parent="1">
          <mxGeometry x="-28" y="60" width="1028" height="60" as="geometry" />
        </mxCell>
      </root>
    </mxGraphModel>
  </diagram>
</mxfile>
